<svg xmlns="http://www.w3.org/2000/svg" width="1942" height="432" viewBox="0 0 1942 432">
    <defs>
        <clipPath id="kzj7a">
            <path fill="#fff"
                d="M1940 430c-36.492-87.96-283.496-205.533-271-111 12.496 94.533 132.27-115.615 2-187-130.27-71.386-506.23 53.856-751 71C675.23 220.144 526.625-2.38 344 2 161.375 6.38 140.586 166.094 194 192c53.414 25.906 117.586-145.302-192-8" />
        </clipPath>
    </defs>
    <g>
        <g>
            <path fill="none" stroke="#16d44b" stroke-dasharray="0 15" stroke-linecap="round" stroke-miterlimit="20"
                stroke-width="6"
                d="M1940 430c-36.492-87.96-283.496-205.533-271-111 12.496 94.533 132.27-115.615 2-187-130.27-71.386-506.23 53.856-751 71C675.23 220.144 526.625-2.38 344 2 161.375 6.38 140.586 166.094 194 192c53.414 25.906 117.586-145.302-192-8"
                 />
        </g>
    </g>
</svg>