<svg xmlns="http://www.w3.org/2000/svg" preserveAspectRatio="none" width="2006" height="551" viewBox="0 0 2006 551">
    <defs>
        <clipPath id="1xxga">
            <path fill="#fff"
                d="M30 71c65.695-20.214 382.309-108.454 451 67 68.691 175.454 6.244 377.314 168 382 161.756 4.685 264.39-137.125 204-174-60.39-36.876-88.89 158.275 359 45s514.807 46.592 502 94c-12.807 47.408-161.425 36.921-10-214 84.322-139.728 220.07-216.544 272-237" />
        </clipPath>
    </defs>
    <g>
        <g>
            <path fill="none" stroke="#16d44b" stroke-dasharray="0 15" stroke-linecap="round" stroke-miterlimit="20"
                stroke-width="6"
                d="M30 71c65.695-20.214 382.309-108.454 451 67 68.691 175.454 6.244 377.314 168 382 161.756 4.685 264.39-137.125 204-174-60.39-36.876-88.89 158.275 359 45s514.807 46.592 502 94c-12.807 47.408-161.425 36.921-10-214 84.322-139.728 220.07-216.544 272-237"
                clip-path="url(&quot;#1xxga&quot;)" />
        </g>
    </g>
</svg>